<?xml version="1.0" ?><svg id="Layer_5" style="enable-background:new 0 0 61.999 61.988;" version="1.1" viewBox="0 0 61.999 61.988" xml:space="preserve" xmlns="http://www.w3.org/2000/svg" xmlns:xlink="http://www.w3.org/1999/xlink"><g><g><g><rect height="8" style="fill:#CF9E76;" width="34" x="17" y="22.988"/></g><g><path d="M41,28.988v2H27v-2c0-1.1,0.9-2,2-2h10C40.1,26.988,41,27.888,41,28.988z" style="fill:#D3A06C;"/></g><g><path d="M11,18.148l2.03-1.16h41.94l2.03,1.16v42.84h-6v-30v-8H17v8v5c0-0.55-0.45-1-1-1h-5V18.148z" style="fill:#E6E9ED;"/></g><g><path d="M31,42.988c-1.1,0-2,0.9-2,2v-10h-4v18c-0.14,0-0.27,0.01-0.41,0.02     c-1.29-6.22-5.57-11.51-11.59-14.02h3c0.55,0,1-0.45,1-1v-1v-1v-5h10h14h10v30H25c2.21,0,4-1.79,4-4h9c1.66,0,3-1.34,3-3v-1h-4     c1.1,0,2-0.9,2-2v-6c0-1.1-0.9-2-2-2h-4H31z" style="fill:#ECC19C;"/></g><g><path d="M60.01,15.258c0.95,0.56,1.27,1.78,0.72,2.74c-0.36,0.61-1.02,0.99-1.73,0.99     c-0.35,0-0.7-0.09-1.01-0.27L57,18.148l-2.03-1.16L34,4.988l-20.97,12L11,18.148l-0.99,0.57c-0.31,0.18-0.65,0.27-1.01,0.27     c-0.71,0-1.37-0.38-1.73-0.99c-0.55-0.96-0.23-2.18,0.72-2.74l24.14-13.77c0.57-0.33,1.22-0.5,1.87-0.5c0.66,0,1.3,0.17,1.87,0.5     L60.01,15.258z" style="fill:#FF826E;"/></g><g><path d="M54.97,16.988H13.03l20.97-12L54.97,16.988z" style="fill:#FC6E51;"/></g><g><circle cx="34" cy="10.988" r="2" style="fill:#69D6F4;"/></g><g><path d="M17,36.988v1c0,0.55-0.45,1-1,1h-3H3H2c-0.55,0-1-0.45-1-1v-2c0-0.55,0.45-1,1-1h9h5     c0.55,0,1,0.45,1,1V36.988z" style="fill:#AAB2BD;"/></g><g><polygon points="29,50.988 29,52.988 25,52.988 25,34.988 29,34.988 29,44.988    " style="fill:#AAB2BD;"/></g><g><path d="M31,52.988h6h4v1c0,1.66-1.34,3-3,3h-9c0-2.21-1.79-4-4-4h4H31z" style="fill:#AAB2BD;"/></g><g><path d="M13,56.988H5c-1.1,0-2-0.9-2-2v-4h8c2.21,0,4,1.79,4,4v2H13z" style="fill:#AAB2BD;"/></g><g><path d="M25,52.988c2.21,0,4,1.79,4,4s-1.79,4-4,4s-4-1.79-4-4c0-2.07,1.57-3.77,3.59-3.98     C24.73,52.998,24.86,52.988,25,52.988z" style="fill:#969FAA;"/></g><g><path d="M5,56.988h8c0,2.21-1.79,4-4,4S5,59.198,5,56.988z" style="fill:#969FAA;"/></g><g><path d="M33,42.988h4c1.1,0,2,0.9,2,2v6c0,1.1-0.9,2-2,2h-6c-1.1,0-2-0.9-2-2v-6c0-1.1,0.9-2,2-2H33z" style="fill:#D3A06C;"/></g></g><g><path d="M60.505,14.392L36.364,0.615c-1.437-0.82-3.288-0.821-4.729,0L7.489,14.397c-1.427,0.833-1.911,2.673-1.078,4.105    c0.536,0.917,1.529,1.486,2.592,1.486c0.344,0,0.677-0.08,0.997-0.194v14.193H2c-1.103,0-2,0.897-2,2v2c0,1.103,0.897,2,2,2v15    c0,1.333,0.88,2.453,2.085,2.842C4.488,60.186,6.532,61.988,9,61.988c2.414,0,4.434-1.721,4.899-4h6.202    c0.465,2.279,2.484,4,4.899,4s4.434-1.721,4.899-4H38c2.206,0,4-1.794,4-4v-2h-2.184c0.112-0.314,0.184-0.648,0.184-1v-6    c0-1.654-1.346-3-3-3h-6c-0.352,0-0.686,0.072-1,0.184v-8.184h-6v14.169c-1.611-3.376-4.12-6.256-7.262-8.314    C17.476,39.549,18,38.83,18,37.988v-1v-1v-4h32v30h2v-40H16v12h-4V18.729l1.295-0.741h41.413l1.294,0.74v43.26h2V19.794    c0.322,0.115,0.655,0.194,0.998,0.194c1.062,0,2.056-0.57,2.594-1.491C62.424,17.07,61.939,15.23,60.505,14.392z M14,55.988H5    c-0.552,0-1-0.448-1-1v-3h7c1.654,0,3,1.346,3,3V55.988z M9,59.988c-1.302,0-2.402-0.839-2.816-2h5.631    C11.402,59.15,10.302,59.988,9,59.988z M25,59.988c-1.654,0-3-1.346-3-3s1.346-3,3-3s3,1.346,3,3S26.654,59.988,25,59.988z     M38,55.988h-8.101c-0.152-0.743-0.482-1.416-0.924-2H31h6h3C40,55.091,39.103,55.988,38,55.988z M31,43.988h1v4h2v-4h3    c0.552,0,1,0.448,1,1v6c0,0.552-0.448,1-1,1h-6c-0.552,0-1-0.448-1-1v-6C30,44.437,30.448,43.988,31,43.988z M28,35.988v9v6v1h-2    v-16H28z M23.387,52.279c-1.656,0.57-2.931,1.966-3.286,3.71H16v-1c0-2.757-2.243-5-5-5H4v-10h8.785    C18.042,42.241,21.94,46.78,23.387,52.279z M40,29.988H28v-1c0-0.551,0.448-1,1-1h10c0.552,0,1,0.449,1,1V29.988z M50,23.988v6h-8    v-1c0-1.654-1.346-3-3-3H29c-1.654,0-3,1.346-3,3v1h-8v-6H50z M16,36.988v1H2l-0.002-2H2h14V36.988z M16.79,15.988l17.211-9.848    l17.211,9.848H16.79z M59.866,17.49c-0.269,0.46-0.896,0.639-1.376,0.358L34.001,3.836L9.504,17.853    c-0.46,0.269-1.1,0.097-1.365-0.357c-0.277-0.478-0.117-1.093,0.351-1.365L32.627,2.353C33.045,2.114,33.52,1.988,34,1.988    s0.956,0.126,1.373,0.364l24.131,13.771C59.98,16.402,60.142,17.016,59.866,17.49z"/><path d="M31,10.988c0,1.654,1.346,3,3,3s3-1.346,3-3s-1.346-3-3-3S31,9.334,31,10.988z M35,10.988c0,0.551-0.448,1-1,1    s-1-0.449-1-1s0.448-1,1-1S35,10.437,35,10.988z"/><circle cx="25" cy="56.988" r="1"/></g></g></svg>